<mxfile host="app.diagrams.net" modified="2022-12-21T07:10:40.830Z" agent="5.0 (Windows NT 10.0; Win64; x64) AppleWebKit/537.36 (KHTML, like Gecko) Chrome/108.0.0.0 Safari/537.36 Edg/108.0.1462.54" etag="hbCxntmYKGKBMm_s2vY3" version="20.7.4" type="github">
  <diagram id="2774OvYsJwyAuiLDkNWw" name="第 1 页">
    <mxGraphModel dx="1217" dy="701" grid="1" gridSize="10" guides="1" tooltips="1" connect="1" arrows="1" fold="1" page="1" pageScale="1" pageWidth="827" pageHeight="1169" math="1" shadow="0">
      <root>
        <mxCell id="0" />
        <mxCell id="1" parent="0" />
        <mxCell id="0_6eByBAk0egfYb1MVca-36" value="" style="rounded=1;whiteSpace=wrap;html=1;fontSize=24;fillColor=#f8cecc;strokeColor=none;" parent="1" vertex="1">
          <mxGeometry x="240" y="356" width="450" height="100" as="geometry" />
        </mxCell>
        <mxCell id="0_6eByBAk0egfYb1MVca-35" value="" style="rounded=1;whiteSpace=wrap;html=1;fontSize=24;fillColor=#dae8fc;strokeColor=none;" parent="1" vertex="1">
          <mxGeometry x="240" y="219" width="624" height="100" as="geometry" />
        </mxCell>
        <mxCell id="0_6eByBAk0egfYb1MVca-37" value="" style="rounded=1;whiteSpace=wrap;html=1;strokeColor=#666666;fontSize=24;fillColor=none;" parent="1" vertex="1">
          <mxGeometry x="240" y="219" width="120" height="236" as="geometry" />
        </mxCell>
        <mxCell id="0_6eByBAk0egfYb1MVca-3" style="edgeStyle=orthogonalEdgeStyle;rounded=0;orthogonalLoop=1;jettySize=auto;html=1;exitX=1;exitY=0.5;exitDx=0;exitDy=0;fontSize=24;" parent="1" source="0_6eByBAk0egfYb1MVca-1" target="0_6eByBAk0egfYb1MVca-2" edge="1">
          <mxGeometry relative="1" as="geometry" />
        </mxCell>
        <mxCell id="0_6eByBAk0egfYb1MVca-1" value="&lt;i style=&quot;font-size: 24px;&quot;&gt;$$x_t$$&lt;/i&gt;" style="rounded=1;whiteSpace=wrap;html=1;fontSize=24;" parent="1" vertex="1">
          <mxGeometry x="70" y="230" width="80" height="80" as="geometry" />
        </mxCell>
        <mxCell id="0_6eByBAk0egfYb1MVca-6" style="edgeStyle=orthogonalEdgeStyle;rounded=0;orthogonalLoop=1;jettySize=auto;html=1;exitX=1;exitY=0.5;exitDx=0;exitDy=0;fontSize=24;" parent="1" source="0_6eByBAk0egfYb1MVca-2" target="0_6eByBAk0egfYb1MVca-5" edge="1">
          <mxGeometry relative="1" as="geometry" />
        </mxCell>
        <mxCell id="0_6eByBAk0egfYb1MVca-2" value="&lt;i style=&quot;font-size: 24px;&quot;&gt;$$v$$&lt;/i&gt;" style="rounded=1;whiteSpace=wrap;html=1;fontSize=24;fillColor=#dae8fc;strokeColor=#000000;" parent="1" vertex="1">
          <mxGeometry x="262" y="230" width="80" height="80" as="geometry" />
        </mxCell>
        <mxCell id="0_6eByBAk0egfYb1MVca-4" value="&lt;font style=&quot;font-size: 24px;&quot;&gt;$$t$$&lt;/font&gt;" style="text;html=1;align=center;verticalAlign=middle;resizable=0;points=[];autosize=1;strokeColor=none;fillColor=none;fontSize=24;" parent="1" vertex="1">
          <mxGeometry x="161" y="235" width="80" height="40" as="geometry" />
        </mxCell>
        <mxCell id="0_6eByBAk0egfYb1MVca-8" style="edgeStyle=orthogonalEdgeStyle;rounded=0;orthogonalLoop=1;jettySize=auto;html=1;exitX=1;exitY=0.5;exitDx=0;exitDy=0;fontSize=24;" parent="1" source="0_6eByBAk0egfYb1MVca-5" target="0_6eByBAk0egfYb1MVca-7" edge="1">
          <mxGeometry relative="1" as="geometry" />
        </mxCell>
        <mxCell id="0_6eByBAk0egfYb1MVca-5" value="&lt;i style=&quot;font-size: 24px;&quot;&gt;$$y_{\theta}$$&lt;/i&gt;" style="rounded=1;whiteSpace=wrap;html=1;fontSize=24;fillColor=#dae8fc;strokeColor=#000000;" parent="1" vertex="1">
          <mxGeometry x="420" y="230" width="80" height="80" as="geometry" />
        </mxCell>
        <mxCell id="0_6eByBAk0egfYb1MVca-10" style="edgeStyle=orthogonalEdgeStyle;rounded=0;orthogonalLoop=1;jettySize=auto;html=1;fontSize=24;" parent="1" source="0_6eByBAk0egfYb1MVca-7" target="0_6eByBAk0egfYb1MVca-9" edge="1">
          <mxGeometry relative="1" as="geometry" />
        </mxCell>
        <mxCell id="0_6eByBAk0egfYb1MVca-7" value="&lt;i style=&quot;font-size: 24px;&quot;&gt;$$z_{\theta}$$&lt;/i&gt;" style="rounded=1;whiteSpace=wrap;html=1;fontSize=24;fillColor=#dae8fc;strokeColor=#000000;" parent="1" vertex="1">
          <mxGeometry x="590" y="230" width="80" height="80" as="geometry" />
        </mxCell>
        <mxCell id="0_6eByBAk0egfYb1MVca-55" style="edgeStyle=orthogonalEdgeStyle;curved=1;orthogonalLoop=1;jettySize=auto;html=1;exitX=1;exitY=0.5;exitDx=0;exitDy=0;shadow=0;dashed=1;fontSize=24;" parent="1" source="0_6eByBAk0egfYb1MVca-9" edge="1">
          <mxGeometry relative="1" as="geometry">
            <mxPoint x="840" y="410" as="targetPoint" />
            <Array as="points">
              <mxPoint x="870" y="270" />
              <mxPoint x="870" y="410" />
            </Array>
          </mxGeometry>
        </mxCell>
        <mxCell id="0_6eByBAk0egfYb1MVca-9" value="&lt;i style=&quot;font-size: 24px;&quot;&gt;$$q_\theta(z_{\theta})$$&lt;/i&gt;" style="rounded=1;whiteSpace=wrap;html=1;fontSize=24;fillColor=#dae8fc;strokeColor=#000000;" parent="1" vertex="1">
          <mxGeometry x="770" y="230" width="80" height="80" as="geometry" />
        </mxCell>
        <mxCell id="0_6eByBAk0egfYb1MVca-44" style="edgeStyle=orthogonalEdgeStyle;orthogonalLoop=1;jettySize=auto;html=1;exitX=1;exitY=0.5;exitDx=0;exitDy=0;shadow=0;fontSize=24;rounded=1;fontColor=#C2C2C2;strokeColor=#000000;" parent="1" source="0_6eByBAk0egfYb1MVca-21" edge="1">
          <mxGeometry relative="1" as="geometry">
            <mxPoint x="730" y="270" as="targetPoint" />
          </mxGeometry>
        </mxCell>
        <mxCell id="0_6eByBAk0egfYb1MVca-21" value="&lt;font style=&quot;font-size: 24px;&quot;&gt;action&lt;/font&gt;" style="rounded=1;whiteSpace=wrap;html=1;fontSize=24;" parent="1" vertex="1">
          <mxGeometry x="370" y="100" width="180" height="60" as="geometry" />
        </mxCell>
        <mxCell id="0_6eByBAk0egfYb1MVca-25" style="edgeStyle=orthogonalEdgeStyle;rounded=0;orthogonalLoop=1;jettySize=auto;html=1;exitX=1;exitY=0.5;exitDx=0;exitDy=0;fontSize=24;" parent="1" source="0_6eByBAk0egfYb1MVca-26" target="0_6eByBAk0egfYb1MVca-28" edge="1">
          <mxGeometry relative="1" as="geometry" />
        </mxCell>
        <mxCell id="0_6eByBAk0egfYb1MVca-26" value="&lt;i style=&quot;font-size: 24px;&quot;&gt;$$x_{t+1}$$&lt;/i&gt;" style="rounded=1;whiteSpace=wrap;html=1;fontSize=24;" parent="1" vertex="1">
          <mxGeometry x="70" y="366" width="80" height="80" as="geometry" />
        </mxCell>
        <mxCell id="0_6eByBAk0egfYb1MVca-27" style="edgeStyle=orthogonalEdgeStyle;rounded=0;orthogonalLoop=1;jettySize=auto;html=1;exitX=1;exitY=0.5;exitDx=0;exitDy=0;fontSize=24;" parent="1" source="0_6eByBAk0egfYb1MVca-28" target="0_6eByBAk0egfYb1MVca-31" edge="1">
          <mxGeometry relative="1" as="geometry" />
        </mxCell>
        <mxCell id="0_6eByBAk0egfYb1MVca-28" value="&lt;i style=&quot;font-size: 24px;&quot;&gt;$$v&#39;$$&lt;/i&gt;" style="rounded=1;whiteSpace=wrap;html=1;fontSize=24;fillColor=#f8cecc;strokeColor=#000000;" parent="1" vertex="1">
          <mxGeometry x="262" y="366" width="80" height="80" as="geometry" />
        </mxCell>
        <mxCell id="0_6eByBAk0egfYb1MVca-29" value="&lt;font style=&quot;font-size: 24px;&quot;&gt;$$t&#39;$$&lt;/font&gt;" style="text;html=1;align=center;verticalAlign=middle;resizable=0;points=[];autosize=1;strokeColor=none;fillColor=none;fontSize=24;" parent="1" vertex="1">
          <mxGeometry x="158" y="371" width="90" height="40" as="geometry" />
        </mxCell>
        <mxCell id="0_6eByBAk0egfYb1MVca-30" style="edgeStyle=orthogonalEdgeStyle;rounded=0;orthogonalLoop=1;jettySize=auto;html=1;exitX=1;exitY=0.5;exitDx=0;exitDy=0;fontSize=24;" parent="1" source="0_6eByBAk0egfYb1MVca-31" target="0_6eByBAk0egfYb1MVca-33" edge="1">
          <mxGeometry relative="1" as="geometry" />
        </mxCell>
        <mxCell id="0_6eByBAk0egfYb1MVca-31" value="&lt;i style=&quot;font-size: 24px;&quot;&gt;$$y&#39;_{\xi}$$&lt;/i&gt;" style="rounded=1;whiteSpace=wrap;html=1;fontSize=24;fillColor=#f8cecc;strokeColor=#000000;" parent="1" vertex="1">
          <mxGeometry x="420" y="366" width="80" height="80" as="geometry" />
        </mxCell>
        <mxCell id="0_6eByBAk0egfYb1MVca-32" style="edgeStyle=orthogonalEdgeStyle;rounded=0;orthogonalLoop=1;jettySize=auto;html=1;fontSize=24;" parent="1" source="0_6eByBAk0egfYb1MVca-33" edge="1">
          <mxGeometry relative="1" as="geometry">
            <mxPoint x="770" y="406" as="targetPoint" />
          </mxGeometry>
        </mxCell>
        <mxCell id="0_6eByBAk0egfYb1MVca-33" value="&lt;i style=&quot;font-size: 24px;&quot;&gt;$$z&#39;_{\xi}$$&lt;/i&gt;" style="rounded=1;whiteSpace=wrap;html=1;fontSize=24;fillColor=#f8cecc;strokeColor=#000000;" parent="1" vertex="1">
          <mxGeometry x="590" y="366" width="80" height="80" as="geometry" />
        </mxCell>
        <mxCell id="0_6eByBAk0egfYb1MVca-38" value="" style="rounded=1;whiteSpace=wrap;html=1;strokeColor=#666666;fontSize=24;fillColor=none;" parent="1" vertex="1">
          <mxGeometry x="400" y="220" width="120" height="236" as="geometry" />
        </mxCell>
        <mxCell id="0_6eByBAk0egfYb1MVca-39" value="" style="rounded=1;whiteSpace=wrap;html=1;strokeColor=#666666;fontSize=24;fillColor=none;" parent="1" vertex="1">
          <mxGeometry x="570" y="220" width="120" height="236" as="geometry" />
        </mxCell>
        <mxCell id="0_6eByBAk0egfYb1MVca-40" value="view" style="text;html=1;align=center;verticalAlign=middle;resizable=0;points=[];autosize=1;strokeColor=none;fillColor=none;fontSize=24;" parent="1" vertex="1">
          <mxGeometry x="265" y="170" width="70" height="40" as="geometry" />
        </mxCell>
        <mxCell id="0_6eByBAk0egfYb1MVca-41" value="representation" style="text;html=1;align=center;verticalAlign=middle;resizable=0;points=[];autosize=1;strokeColor=none;fillColor=none;fontSize=24;" parent="1" vertex="1">
          <mxGeometry x="370" y="170" width="180" height="40" as="geometry" />
        </mxCell>
        <mxCell id="0_6eByBAk0egfYb1MVca-42" value="projection" style="text;html=1;align=center;verticalAlign=middle;resizable=0;points=[];autosize=1;strokeColor=none;fillColor=none;fontSize=24;" parent="1" vertex="1">
          <mxGeometry x="565" y="170" width="130" height="40" as="geometry" />
        </mxCell>
        <mxCell id="0_6eByBAk0egfYb1MVca-45" value="concat" style="text;html=1;align=center;verticalAlign=middle;resizable=0;points=[];autosize=1;strokeColor=none;fillColor=none;fontSize=24;" parent="1" vertex="1">
          <mxGeometry x="682" y="265" width="90" height="40" as="geometry" />
        </mxCell>
        <mxCell id="0_6eByBAk0egfYb1MVca-46" value="$$sg(z&#39;_\xi)$$" style="text;html=1;align=center;verticalAlign=middle;resizable=0;points=[];autosize=1;strokeColor=none;fillColor=none;fontSize=24;" parent="1" vertex="1">
          <mxGeometry x="725" y="386" width="170" height="40" as="geometry" />
        </mxCell>
        <mxCell id="0_6eByBAk0egfYb1MVca-50" value="online" style="text;html=1;align=center;verticalAlign=middle;resizable=0;points=[];autosize=1;strokeColor=none;fillColor=none;fontSize=24;" parent="1" vertex="1">
          <mxGeometry x="865" y="249" width="90" height="40" as="geometry" />
        </mxCell>
        <mxCell id="0_6eByBAk0egfYb1MVca-51" value="target" style="text;html=1;align=center;verticalAlign=middle;resizable=0;points=[];autosize=1;strokeColor=none;fillColor=none;fontSize=24;" parent="1" vertex="1">
          <mxGeometry x="875" y="386" width="80" height="40" as="geometry" />
        </mxCell>
      </root>
    </mxGraphModel>
  </diagram>
</mxfile>
